<svg id="Layer_1" data-name="Layer 1" xmlns="http://www.w3.org/2000/svg" viewBox="0 0 32 32"><defs><style>.cls-1{fill:none;stroke:#000;stroke-miterlimit:10;stroke-width:3px;}</style></defs><title>zakucon-zeon-capt</title><polygon points="16 3.75 2 11.75 2 14.75 16 6.75 30 14.75 30 11.75 16 3.75"/><polygon points="16 9.75 2 17.75 2 20.75 16 12.75 30 20.75 30 17.75 16 9.75"/><polygon points="16 15.75 2 23.75 2 26.75 16 18.75 30 26.75 30 23.75 16 15.75"/><line class="cls-1" x1="16" y1="28.25" x2="16" y2="18.25"/><polyline points="2 12 2 4 5 4 5 11"/><polyline points="30 13.5 30 4 27 4 27 11"/></svg>