<svg id="Layer_1" data-name="Layer 1" xmlns="http://www.w3.org/2000/svg" viewBox="0 0 32 32"><title>zakucon-gundam</title><polygon points="14.4 3.06 17.18 3.06 18.96 1.28 14.12 1.26 13.32 2.06 13.32 4.53 12.54 4.53 12.54 5.44 14.4 5.44 14.4 3.06"/><path d="M9.85,16.38H13l1.13-.91v-.91C10.37,14.73,9.85,16.38,9.85,16.38Z"/><polygon points="4.21 16.38 3 17.85 3 26.1 4.21 28.74 4.21 25.58 5.95 25.58 5.95 24.8 4.21 24.8 4.21 23.49 5.95 23.49 5.95 22.71 4.21 22.71 4.21 21.41 5.95 21.41 5.95 20.63 4.21 20.63 4.21 19.33 5.95 19.33 5.95 18.55 4.21 18.55 4.21 16.38"/><path d="M16,13h0c-4.87,0-9.74,2.82-9.74,2.82l.26,2.13,1.82.61v9h2.08V20h.78v2.58l3,5h3.71l3-5V20h.78v7.59h2.08v-9l1.82-.61.26-2.13S20.88,13,16,13Zm2.58,11.8H17.9V23L16,22.8h0L14.1,23v1.8h-.69v-2.6l1-1h3.19l1,1Zm.09-11.11s4.3,1.21,4.86,2,.74,3.43-3.77,2.56A5.84,5.84,0,0,0,16,15.64h0a5.84,5.84,0,0,0-3.75,2.64c-4.51.87-4.34-1.74-3.77-2.56s4.86-2,4.86-2h5.36Z"/><path d="M22.15,16.38s-.52-1.65-4.25-1.82v.91l1.13.91Z"/><polygon points="27.79 18.55 26.05 18.55 26.05 19.33 27.79 19.33 27.79 20.63 26.05 20.63 26.05 21.41 27.79 21.41 27.79 22.71 26.05 22.71 26.05 23.49 27.79 23.49 27.79 24.8 26.05 24.8 26.05 25.58 27.79 25.58 27.79 28.74 29 26.1 29 17.85 27.79 16.38 27.79 18.55"/><path d="M21.5,8.46,32,2.62,16,7.44,0,2.62,10.5,8.46c-3.08,1.32-4.56,5.06-4.56,5.06a10.61,10.61,0,0,1,6.81-3.81L16,11.51h0l3.23-1.8a10.61,10.61,0,0,1,6.81,3.81S24.57,9.78,21.5,8.46Z"/></svg>