<svg id="Layer_1" data-name="Layer 1" xmlns="http://www.w3.org/2000/svg" viewBox="0 0 32 32"><title>zakucon-char</title><polygon points="10.93 21.15 12.78 22.55 14.62 21.87 14.03 20.75 10.93 20.43 10.93 21.15"/><polygon points="22.15 20.43 19.05 20.75 18.46 21.87 20.3 22.55 22.15 21.15 22.15 20.43"/><path d="M25.84,19.1c-.12-1.5-.2-5.66-1.59-8.67L21.86,0l.78,8.18A9.71,9.71,0,0,0,17.39,5.5V5.11l-.86-.77-.86.77v.33A8.37,8.37,0,0,0,11.49,7l.38.06a15.08,15.08,0,0,1,3.81-.54v.3l-1.24,5.93-4.22-1.09L10.88,0,8.33,13.14,13.09,16l3.45,4.54L20,16l4.12-2.51c.22.8.33,1.44.4,1.71.35,1.33-.47,2.15-1.33,1.74A5.91,5.91,0,0,0,21,16.59s2.1.83,2.12,1.44-6.55,2.55-6.55,2.55S10.73,18.8,10.61,18s2.45-1,2.45-1l-.53-.8c-2.36-.09-2.57,1.65-4,1.76S7.89,11,7.89,11A13.59,13.59,0,0,0,6.8,16.56C7,19.24,6.39,19.6,6,21s-4,4.31-3.31,4.13c5.25,6,9.55,5.69,9.55,5.69-3.35-2.58-3.45-5.34-3.35-6.34a5.13,5.13,0,0,1,2.94-.27,5.84,5.84,0,0,0,4.66-1.33c.18-.12-2.48,1.3-3.76.89s-4.09-.21-4.44.15.94-4.15,2.6-4.21l5.62,1.68s5.45-1.71,6.63-1.92c1.53.56,1.36,4.4,1.18,4.25a4.93,4.93,0,0,0-3-.24c-1.21.35-4.37-.53-4.37-.53a6.36,6.36,0,0,0,4.28,1.18l.36,0c.91.71-1.36,4.81-2.45,6s-3.63.83-4.25.62-3.29-3.07-3.29-3.07l-.93-.41.62,1s2.57,2.81,2.92,3.14.57.37,1.33.56a4.1,4.1,0,0,0,2.21,0A14.21,14.21,0,0,0,21,29.19a38.43,38.43,0,0,0,2.34-4.88,3.26,3.26,0,0,1,1.44,1.07l.57-4.53a11.39,11.39,0,0,1,2.15,3.73c.65,2.18-2.72,4.84-2.72,4.84C29,27.85,30.11,25,30.11,25,29.23,24.35,26,21,25.84,19.1Zm-9.3-1.59-2-2.69,2-7.17,2,7.17Zm2.1-4.79L17.39,6.79V6.63a7.61,7.61,0,0,1,5.38,3.7l.08,1.3Z"/><polygon points="16.34 23.11 16.34 26.65 18.02 25.71 16.34 23.11"/></svg>