<svg id="Layer_1" data-name="Layer 1" xmlns="http://www.w3.org/2000/svg" viewBox="0 0 32 32"><title>zakucon-preventer-wind</title><path d="M8.07,9C6.79,5.34,5.2,6.78,5.2,6.78c2.54,3.34,2.72,16.63-3.34,20.68-1.43,1-.48,1.75,1.91,0S11.21,18,8.07,9Z"/><path d="M28.74,21.09s.32,5.25-.32,5.57c0,0-8.91-8-3.18-22.27A4.77,4.77,0,0,0,22.38,2S13.63,5.5,8.7,5.34c0,0,2.07,2.39,7.48.8s5.57-1.27,5.57-1.27S18.4,25.54,30.81,30C30.81,30,30.49,23.16,28.74,21.09Z"/><path d="M17.77,20.14l.8,1.59a26,26,0,0,1-3.17,1.44c0-.59.07-2,.14-3.54,1.23-.21,2.45-.52,3.19-.61,1.27-.16.48-1.11-.48-1.59a5.9,5.9,0,0,0,2.39-2.7c.32-.48-2.07-2.7-2.39-2.39a7.52,7.52,0,0,1-2.33.92A7.6,7.6,0,0,1,16,12.5a1.66,1.66,0,0,0-1.07-1.84c2.54-.68,4.73-1.5,4.73-1.5,0-1.43-1.91-2.86-1.91-2.86V8l-8.11,3.5A19,19,0,0,0,13.71,11,21.68,21.68,0,0,1,14,13.77v0A22.65,22.65,0,0,0,10.77,15a20.57,20.57,0,0,0,3.18.21v3.36l-.64.09C11.09,19,10.13,15,10.13,15s-1.11,1.27,0,3.82,2.07,2.07,2.86,1a6.5,6.5,0,0,0,1,0v3.83a9.78,9.78,0,0,1-4.29.46l-1-.32s0,2.23.64,3S16.5,24,19.2,22.68l1.75,3.66,1.27-2.23S20.47,20.29,17.77,20.14Zm-2-5.21c1.26-.38,2.31-.48,2.31-.19a12.74,12.74,0,0,1-1.27,2.7,1.89,1.89,0,0,1-1.22.85C15.65,17.12,15.71,15.93,15.78,14.92Z"/></svg>