<svg id="Layer_1" data-name="Layer 1" xmlns="http://www.w3.org/2000/svg" viewBox="0 0 32 32"><defs><style>.cls-1{fill:none;stroke:#000;stroke-miterlimit:10;stroke-width:3px;}</style></defs><title>zakucon-rank-d</title><path d="M13.7,7.84h3.45A6.93,6.93,0,0,1,21.8,9.18a5.1,5.1,0,0,1,1.54,4.06,15.11,15.11,0,0,1-.15,2,22.24,22.24,0,0,1-.45,2.31,13.68,13.68,0,0,1-1,2.8,6.74,6.74,0,0,1-1.36,1.9A5.92,5.92,0,0,1,18,23.73a13.52,13.52,0,0,1-3.83.44H10.52Zm2.64,2.91-2,10.51h1a4.11,4.11,0,0,0,2.07-.48,3.25,3.25,0,0,0,1.31-1.44,12.39,12.39,0,0,0,.92-2.76,13.79,13.79,0,0,0,.36-3,3,3,0,0,0-.68-2.14,2.81,2.81,0,0,0-2.09-.7Z"/><path class="cls-1" d="M11,2.58a14.58,14.58,0,0,1,5.13-.93A14.35,14.35,0,1,1,1.65,16,14.18,14.18,0,0,1,3.43,9.11"/></svg>