<svg id="Layer_1" data-name="Layer 1" xmlns="http://www.w3.org/2000/svg" viewBox="0 0 32 32"><title>zakucon-flag</title><path d="M21.47,4.7h0a6,6,0,0,1,1.66-.09l1.45,7.75a12.66,12.66,0,0,0-1.64.2A24.58,24.58,0,0,0,16.1,15.3a19.93,19.93,0,0,1-5.17,2.15,6,6,0,0,1-1.66.09L7.82,9.78a12.66,12.66,0,0,0,1.64-.2A24.59,24.59,0,0,0,16.3,6.85,19.94,19.94,0,0,1,21.47,4.7m-.55-2.95c-4.16.78-7.85,4.1-12,4.88A8.67,8.67,0,0,1,4.1,6.21L6.67,20a8.67,8.67,0,0,0,4.81.42c4.16-.78,7.85-4.1,12-4.88a8.67,8.67,0,0,1,4.81.42L25.73,2.17a8.67,8.67,0,0,0-4.81-.42Z"/><rect x="6.69" y="10.2" width="3" height="19.5" transform="translate(-3.53 1.85) rotate(-10.59)"/></svg>