<svg id="Layer_1" data-name="Layer 1" xmlns="http://www.w3.org/2000/svg" viewBox="0 0 32 32"><defs><style>.cls-1{fill:none;stroke:#000;stroke-miterlimit:10;stroke-width:3px;}</style></defs><title>zakucon-rank-c</title><path d="M19.12,23.68a8.34,8.34,0,0,1-1.72.59,8.23,8.23,0,0,1-1.81.2,5.16,5.16,0,0,1-4-1.5,6.2,6.2,0,0,1-1.38-4.35A15.15,15.15,0,0,1,11,13.79,10.87,10.87,0,0,1,13.07,10a7.07,7.07,0,0,1,2.48-1.83,7.62,7.62,0,0,1,3.1-.62,7.85,7.85,0,0,1,1.75.2,8.52,8.52,0,0,1,1.7.59l-.7,3.59a3.55,3.55,0,0,0-1.34-1.12,4,4,0,0,0-1.76-.38,3.19,3.19,0,0,0-1.72.53,4.61,4.61,0,0,0-1.43,1.46,10.4,10.4,0,0,0-1.22,2.82,11.51,11.51,0,0,0-.46,3.12,3.79,3.79,0,0,0,.69,2.44,2.4,2.4,0,0,0,2,.85,4.57,4.57,0,0,0,1.77-.37,8.55,8.55,0,0,0,1.91-1.17Z"/><path class="cls-1" d="M10.91,2.58a14.35,14.35,0,1,1-7.5,6.53"/></svg>