<svg id="Layer_1" data-name="Layer 1" xmlns="http://www.w3.org/2000/svg" viewBox="0 0 32 32"><defs><style>.cls-1{fill:none;stroke:#000;stroke-miterlimit:10;stroke-width:3px;}</style></defs><title>zakucon-user-admin</title><circle class="cls-1" cx="16" cy="9.5" r="4.49"/><path class="cls-1" d="M27.27,30.23a11.27,11.27,0,0,0-22.54,0Z"/><polygon points="12.41 19.68 15.25 30.23 5.63 30.23 5.63 27.19 9.02 21.69 12.41 19.68"/><polygon points="19.59 19.45 16.75 30 26.38 30 26.38 26.96 22.98 21.46 19.59 19.45"/><polygon points="16 8 9 8 16 3 23 8 16 8"/><polyline points="12 7 10 2 16 2 17 6"/><polyline points="20 7 22 2 16 2 15 6"/></svg>