<svg id="Layer_1" data-name="Layer 1" xmlns="http://www.w3.org/2000/svg" viewBox="0 0 32 32"><defs><style>.cls-1{fill:none;stroke:#000;stroke-miterlimit:10;stroke-width:3px;}</style></defs><title>zakucon-rank-b</title><path d="M11.89,7.39h5.27a5.63,5.63,0,0,1,3.48.91A3.2,3.2,0,0,1,21.82,11a3.93,3.93,0,0,1-1,2.84,4.68,4.68,0,0,1-3,1.3,3.6,3.6,0,0,1,2.36,1,3.15,3.15,0,0,1,.84,2.3,5.79,5.79,0,0,1-.42,2.2,4.65,4.65,0,0,1-1.17,1.71,4.93,4.93,0,0,1-2.08,1.06,14,14,0,0,1-3.39.33H8.72Zm1.39,8.93-.94,4.83h2.15A3.66,3.66,0,0,0,17,20.43a2.91,2.91,0,0,0,.8-2.27,1.65,1.65,0,0,0-.58-1.39,2.93,2.93,0,0,0-1.79-.45ZM14.52,10l-.74,3.79h2.15a2.93,2.93,0,0,0,2-.6,2.22,2.22,0,0,0,.67-1.75,1.27,1.27,0,0,0-.47-1.09A2.44,2.44,0,0,0,16.67,10Z"/><path class="cls-1" d="M10.91,2.15a14.35,14.35,0,1,1-7.5,6.53"/></svg>