<svg id="Layer_1" data-name="Layer 1" xmlns="http://www.w3.org/2000/svg" viewBox="0 0 32 32"><title>zakucon-rank-s</title><path d="M8.57,20.22a10.5,10.5,0,0,0,2.82,1.72,7.88,7.88,0,0,0,3,.59,4.65,4.65,0,0,0,2.9-.81,2.63,2.63,0,0,0,1.06-2.2A2.38,2.38,0,0,0,17.83,18a3.48,3.48,0,0,0-1.45-1l-1.65-.7a9.45,9.45,0,0,1-3.53-2.15,4.25,4.25,0,0,1-.86-2.79,6.32,6.32,0,0,1,2.24-5A8.56,8.56,0,0,1,18.4,4.39a13.81,13.81,0,0,1,1.47.08L16,.61.61,16,8,23.36Z"/><path d="M23.32,7.93,23,9.49A6.29,6.29,0,0,0,20.8,8.2,8.53,8.53,0,0,0,18,7.76a4.28,4.28,0,0,0-2.67.79,2.42,2.42,0,0,0-1,2q0,1.17,2.56,2.32l.1,0,1.61.71a7.25,7.25,0,0,1,3,2.17,5.11,5.11,0,0,1,.94,3.12A6.36,6.36,0,0,1,20.23,24a9,9,0,0,1-6,1.9,14.1,14.1,0,0,1-3.12-.36c-.41-.09-.83-.22-1.25-.35L16,31.39,31.39,16Z"/><polygon points="2.94 2.94 2.94 9.02 9.02 2.94 2.94 2.94"/><polygon points="29.06 2.94 22.98 2.94 29.06 9.02 29.06 2.94"/><polygon points="2.94 29.06 9.02 29.06 2.94 22.98 2.94 29.06"/><polygon points="29.06 29.06 29.06 22.98 22.98 29.06 29.06 29.06"/></svg>