<svg id="Layer_1" data-name="Layer 1" xmlns="http://www.w3.org/2000/svg" viewBox="0 0 32 32"><title>zakucon-x</title><path d="M13.3,6.89h0Z"/><path d="M23.21,8.43c-.47.43-2.36,2.18-4.59,4.23-.08-2.08-.14-3.73-.14-4a1.71,1.71,0,0,1,2-1.76H13.31C13.44,6.9,16,6.93,16,9c0,.89.08,3.36.17,6-2.89,2.63-5.73,5.17-6.47,5.7C8.13,21.74,2.85,25,0,25.11H11.76a1.47,1.47,0,0,1-.24-2.66C12,22,14,20.29,16.28,18.21c.08,2.21.15,4,.15,4.38a2.9,2.9,0,0,1-3,2.52h8.73s-3.07-1-3.15-2.74c0-.77-.15-3.54-.27-6.39,3.57-3.22,7.2-6.5,7.74-6.91A9.41,9.41,0,0,1,32,6.89H21.79S24.42,7.31,23.21,8.43Z"/></svg>