<svg id="Layer_1" data-name="Layer 1" xmlns="http://www.w3.org/2000/svg" viewBox="0 0 32 32"><title>zakucon-londo-bell</title><path d="M25.88,14c-2.64-5.92,1.39-9.4,1.39-9.4L24.49,1.87h-17L4.73,4.59s4,3.48,1.39,9.4S2.78,24.35,10.43,26.86C14.89,28.25,16,30.13,16,30.13s1.11-1.88,5.57-3.27C29.22,24.35,28.53,19.9,25.88,14Zm-3.31-.44c-2.54,2.41-3.1,5-2,7.14l-5.15-3a1.37,1.37,0,1,1-2-1.19l-5.15-3c2.38-.08,4.39-1.85,5.25-5.25.75-3,4-3.43,6.4-2.54a1.37,1.37,0,1,1,1.79,1C23.6,8.37,24.8,11.43,22.57,13.54Z"/></svg>