<?xml version="1.0" encoding="utf-8"?>
<!-- Generator: Adobe Illustrator 22.1.0, SVG Export Plug-In . SVG Version: 6.00 Build 0)  -->
<svg version="1.1" id="Layer_1" xmlns="http://www.w3.org/2000/svg" xmlns:xlink="http://www.w3.org/1999/xlink" x="0px" y="0px"
	 viewBox="0 0 32 32" style="enable-background:new 0 0 32 32;" xml:space="preserve">
<title>zakucon-globe</title>
<g>
	<path d="M16,27.5C9.7,27.5,4.5,22.3,4.5,16C4.5,9.7,9.7,4.5,16,4.5c6.3,0,11.5,5.2,11.5,11.5C27.5,22.3,22.3,27.5,16,27.5z M16,7.5
		c-4.7,0-8.5,3.8-8.5,8.5c0,4.7,3.8,8.5,8.5,8.5c4.7,0,8.5-3.8,8.5-8.5C24.5,11.3,20.7,7.5,16,7.5z"/>
</g>
<g>
	<path d="M16,27.5c-3.4,0-5-6-5-11.5c0-5.5,1.6-11.5,5-11.5s5,6,5,11.5C21,21.5,19.4,27.5,16,27.5z M16,7.5c-0.6,0.4-2,3.3-2,8.5
		c0,5.2,1.4,8.1,2,8.5c0.6-0.4,2-3.3,2-8.5S16.6,7.9,16,7.5z"/>
</g>
<g>
	<rect x="5.6" y="14.9" width="20.8" height="3"/>
</g>
</svg>
